<svg width="23" height="24" viewBox="0 0 23 24" fill="none" xmlns="http://www.w3.org/2000/svg">
<path d="M10.4461 0.886815C9.48436 0.862893 8.56656 1.29898 7.97765 2.05969L7.59486 2.55417L7.42861 2.45605C6.52747 1.9243 5.4537 2.06726 4.73459 2.61523C4.01549 3.16319 3.59276 4.16054 3.86639 5.17046L4.00393 5.67806V5.6781C4.01596 5.72248 4.03001 5.76592 4.0455 5.80865C3.04027 5.78447 1.98674 6.25571 1.38131 7.26871C0.900607 8.07304 0.822475 9.05765 1.17029 9.92775L1.42722 10.5705L1.20935 10.6964C0.30832 11.2172 -0.0971051 12.2145 0.019602 13.1075C0.136309 14.0005 0.784395 14.8601 1.789 15.1319L2.3058 15.2717C2.36412 15.2874 2.42286 15.2987 2.48168 15.3079C1.9412 16.1655 1.80718 17.3227 2.37654 18.368H2.37658C2.82991 19.2002 3.64985 19.7722 4.58759 19.9101L5.23273 20.005V20.2777C5.23277 21.3192 5.89757 22.1681 6.73084 22.5089C7.56408 22.8496 8.63321 22.7099 9.36302 21.967H9.36308L9.71843 21.6053H9.71846C9.73997 21.5834 9.75989 21.5604 9.78001 21.5375C10.262 22.4125 11.1864 23.0841 12.3568 23.1132H12.3568C13.3185 23.1371 14.2363 22.7011 14.8252 21.9403L15.208 21.4458L15.3742 21.544C16.2754 22.0757 17.3492 21.9328 18.0683 21.3848C18.7874 20.8368 19.2101 19.8395 18.9365 18.8296L18.799 18.3219V18.3218C18.787 18.2774 18.7729 18.234 18.7574 18.1913C19.7626 18.2154 20.816 17.7442 21.4214 16.7313V16.7312C21.9021 15.9269 21.9802 14.9423 21.6326 14.0723V14.0723L21.3756 13.4295L21.5934 13.3036C22.4945 12.7828 22.8999 11.7855 22.7832 10.8925C22.6665 9.99942 22.0184 9.13977 21.0138 8.86803L20.4971 8.72827C20.4388 8.7125 20.38 8.70126 20.3212 8.69205C20.8617 7.83448 20.9957 6.67723 20.4264 5.63192C19.973 4.79961 19.1529 4.22768 18.2152 4.0898L17.5701 3.99494V3.72218C17.5701 2.68072 16.9053 1.83176 16.072 1.49097C15.2387 1.15018 14.1695 1.28995 13.4397 2.0329L13.0843 2.39468C13.0628 2.41657 13.0429 2.43955 13.0228 2.46242C12.5407 1.58745 11.6164 0.915926 10.4461 0.886815ZM10.4029 2.62377C11.1117 2.64141 11.484 3.06101 11.6198 3.59395C11.726 4.01035 11.671 4.4347 11.3496 4.76979L9.10318 3.44421L9.3516 3.12332C9.60312 2.79842 9.99215 2.61356 10.4029 2.62377ZM15.1362 3.03916C15.229 3.03936 15.322 3.0615 15.4142 3.0992C15.66 3.19974 15.8325 3.38336 15.8325 3.72219V3.73942L14.4052 3.5295L14.6792 3.25051C14.8276 3.09944 14.9816 3.03883 15.1362 3.03916ZM6.2324 3.84713C6.32348 3.85367 6.42 3.88425 6.52171 3.94042L5.6414 5.0776L5.54344 4.71608C5.4538 4.38521 5.57397 4.16008 5.78768 3.99723C5.92125 3.89545 6.06861 3.83536 6.2324 3.84713ZM8.03113 4.82905L9.67862 5.80121L6.6846 7.53174C6.55546 7.25902 6.3869 7.01284 6.18995 6.79674C6.47496 6.68993 6.73104 6.50842 6.92267 6.26088L8.03113 4.82905ZM13.2344 4.87891C13.4636 5.06245 13.7389 5.18772 14.0376 5.23165L15.8326 5.49559L15.8326 7.41512L12.8474 5.65359C13.0164 5.41196 13.144 5.15005 13.2344 4.87891ZM17.5701 5.75112L17.9624 5.80882C18.3612 5.86747 18.7076 6.10905 18.9005 6.46306C19.2396 7.08574 19.0603 7.61486 18.6657 7.99614C18.3702 8.2817 17.996 8.4436 17.5701 8.35557L17.5701 5.75112ZM11.3967 6.81505L15.8327 9.43261L15.8328 14.6263L11.4062 17.1849L6.97009 14.5673L6.96992 9.37371L11.3967 6.81505ZM3.90685 7.53093C4.0371 7.53124 4.16935 7.5513 4.30054 7.58751C4.7124 7.7012 5.0508 7.95768 5.17778 8.40266L2.94722 9.69192L2.78368 9.2828C2.63643 8.91445 2.66928 8.5006 2.87279 8.16008H2.87276C3.14356 7.70696 3.51612 7.52999 3.90685 7.53093ZM18.4299 10.0188C18.3697 10.3288 18.3948 10.6539 18.5152 10.955L19.2039 12.6778L17.5703 13.6221L17.5701 10.085C17.8626 10.104 18.1521 10.0815 18.4298 10.0188H18.4299ZM5.23244 10.3779L5.23254 13.9149C4.9401 13.8959 4.6506 13.9184 4.37298 13.9811C4.43314 13.6712 4.40802 13.3462 4.28769 13.0452H4.28765L3.59889 11.3221L5.23244 10.3779ZM20.1818 10.4429L20.5601 10.5453C20.8895 10.6344 21.0255 10.8514 21.0603 11.1176C21.0951 11.3838 21.0194 11.6285 20.7239 11.7992L20.1818 10.4429ZM2.07889 12.2007L2.62108 13.557L2.24269 13.4546C1.91331 13.3655 1.77726 13.1486 1.74247 12.8823C1.70767 12.6161 1.7834 12.3715 2.07882 12.2007L2.07889 12.2007ZM19.8556 14.308L20.0192 14.7171V14.717C20.1664 15.0854 20.1335 15.4994 19.93 15.8398V15.8399C19.5689 16.444 19.027 16.5573 18.5023 16.4125C18.0904 16.2988 17.7521 16.0423 17.6251 15.5973L19.8556 14.308ZM5.02563 15.6205C5.09311 15.622 5.16217 15.6298 5.2326 15.6444L5.23267 18.2488L4.84038 18.1911H4.84035C4.4416 18.1325 4.09523 17.8909 3.90238 17.5369V17.5369C3.56321 16.9142 3.74247 16.3851 4.13706 16.0038C4.38369 15.7655 4.68513 15.6132 5.02563 15.6205ZM16.1182 16.4682C16.2473 16.7409 16.4158 16.9871 16.6128 17.2032C16.3278 17.31 16.0718 17.4914 15.8802 17.7389H15.8802L14.7717 19.1709L13.1242 18.1987L16.1182 16.4682ZM6.97015 16.5848L9.95546 18.3463C9.78646 18.588 9.65882 18.8499 9.56846 19.1211C9.33916 18.9375 9.06386 18.8122 8.76493 18.7683L6.97018 18.5043L6.97015 16.5848ZM17.1615 18.9222L17.2594 19.2838C17.3491 19.6147 17.2289 19.8398 17.0152 20.0027C16.8073 20.1611 16.5658 20.2167 16.2811 20.0595L17.1615 18.9222ZM11.4533 19.2302L13.6997 20.5557L13.4512 20.8767C13.1997 21.2016 12.8108 21.3864 12.3999 21.3762C11.6912 21.3586 11.3189 20.939 11.183 20.406C11.0769 19.9896 11.1319 19.5653 11.4533 19.2302ZM6.97025 20.2606L8.39758 20.4705L8.12358 20.7494H8.12354C7.88609 20.9911 7.63435 21.0013 7.38854 20.9007C7.14272 20.8002 6.97026 20.6166 6.97025 20.2777L6.97025 20.2606Z" fill="white"/>
</svg>
